<svg width="20" height="24" viewBox="0 0 20 24" fill="none" xmlns="http://www.w3.org/2000/svg">
<path d="M1 0H3L3.4 2.68945M5 13.4473H15L19 2.68945H3.4M5 13.4473L3.4 2.68945M5 13.4473L2.707 16.5307C2.077 17.3779 2.523 18.8262 3.414 18.8262H15M15 18.8262C14.4696 18.8262 13.9609 19.1095 13.5858 19.6139C13.2107 20.1183 13 20.8023 13 21.5156C13 22.2289 13.2107 22.913 13.5858 23.4174C13.9609 23.9217 14.4696 24.2051 15 24.2051C15.5304 24.2051 16.0391 23.9217 16.4142 23.4174C16.7893 22.913 17 22.2289 17 21.5156C17 20.8023 16.7893 20.1183 16.4142 19.6139C16.0391 19.1095 15.5304 18.8262 15 18.8262ZM7 21.5156C7 22.2289 6.78929 22.913 6.41421 23.4174C6.03914 23.9217 5.53043 24.2051 5 24.2051C4.46957 24.2051 3.96086 23.9217 3.58579 23.4174C3.21071 22.913 3 22.2289 3 21.5156C3 20.8023 3.21071 20.1183 3.58579 19.6139C3.96086 19.1095 4.46957 18.8262 5 18.8262C5.53043 18.8262 6.03914 19.1095 6.41421 19.6139C6.78929 20.1183 7 20.8023 7 21.5156V21.5156Z" stroke="black" stroke-width="2" stroke-linecap="round" stroke-linejoin="round"/>
</svg>
