<svg width="24" height="24" viewBox="0 0 24 24" fill="none" xmlns="http://www.w3.org/2000/svg">
<g clip-path="url(#clip0_2_7)">
<path d="M3 0H5L5.4 2.68945M7 13.4473H17L21 2.68945H5.4M7 13.4473L5.4 2.68945M7 13.4473L4.707 16.5307C4.077 17.3779 4.523 18.8262 5.414 18.8262H17M17 18.8262C16.4696 18.8262 15.9609 19.1095 15.5858 19.6139C15.2107 20.1183 15 20.8023 15 21.5156C15 22.2289 15.2107 22.913 15.5858 23.4174C15.9609 23.9217 16.4696 24.2051 17 24.2051C17.5304 24.2051 18.0391 23.9217 18.4142 23.4174C18.7893 22.913 19 22.2289 19 21.5156C19 20.8023 18.7893 20.1183 18.4142 19.6139C18.0391 19.1095 17.5304 18.8262 17 18.8262ZM9 21.5156C9 22.2289 8.78929 22.913 8.41421 23.4174C8.03914 23.9217 7.53043 24.2051 7 24.2051C6.46957 24.2051 5.96086 23.9217 5.58579 23.4174C5.21071 22.913 5 22.2289 5 21.5156C5 20.8023 5.21071 20.1183 5.58579 19.6139C5.96086 19.1095 6.46957 18.8262 7 18.8262C7.53043 18.8262 8.03914 19.1095 8.41421 19.6139C8.78929 20.1183 9 20.8023 9 21.5156V21.5156Z" stroke="black" stroke-width="2" stroke-linecap="round" stroke-linejoin="round"/>
</g>
<defs>
<clipPath id="clip0_2_7">
<rect width="24" height="24" fill="white"/>
</clipPath>
</defs>
</svg>
