<svg width="35" height="37" viewBox="0 0 35 37" fill="none" xmlns="http://www.w3.org/2000/svg">
<path fill-rule="evenodd" clip-rule="evenodd" d="M9.16665 1.38086C4.86623 1.38086 1.33331 5.07462 1.33331 9.69038V27.3094C1.33331 31.9252 4.86623 35.619 9.16665 35.619H25.8333C30.1337 35.619 33.6666 31.9252 33.6666 27.3094V9.69038C33.6666 5.07462 30.1337 1.38086 25.8333 1.38086H9.16665ZM0.333313 9.69038C0.333313 4.57542 4.26232 0.380859 9.16665 0.380859H25.8333C30.7376 0.380859 34.6666 4.57542 34.6666 9.69038V27.3094C34.6666 32.4244 30.7376 36.619 25.8333 36.619H9.16665C4.26232 36.619 0.333313 32.4244 0.333313 27.3094V9.69038ZM18.4725 11.9459C17.196 11.7458 15.891 11.9759 14.7421 12.6061C13.5927 13.2366 12.6555 14.2371 12.0686 15.4698C11.4816 16.7027 11.2765 18.1021 11.4844 19.4678C11.6923 20.8334 12.3017 22.091 13.2213 23.0632C14.1405 24.0349 15.3223 24.6717 16.5968 24.8885C17.871 25.1053 19.1785 24.8922 20.3345 24.2771C21.491 23.6618 22.4396 22.6737 23.0407 21.449C23.642 20.2239 23.8634 18.8274 23.6715 17.459C23.4757 16.0633 22.8609 14.7752 21.9229 13.7835C20.9852 12.7923 19.7749 12.1501 18.4725 11.9459ZM14.2612 11.7293C15.6016 10.9941 17.1298 10.7232 18.6274 10.958C20.1548 11.1974 21.5642 11.9492 22.6494 13.0963C23.7341 14.2431 24.438 15.7244 24.6618 17.3201C24.8812 18.8844 24.6288 20.483 23.9384 21.8896C23.2479 23.2964 22.1528 24.4424 20.8042 25.1599C19.4552 25.8778 17.9238 26.1286 16.4291 25.8744C14.9347 25.6202 13.5586 24.875 12.4948 23.7504C11.4313 22.6261 10.7335 21.1797 10.4958 19.6182C10.2581 18.0569 10.4919 16.4551 11.1657 15.0399C11.8397 13.6243 12.9213 12.4643 14.2612 11.7293ZM26.6666 8.30943C26.3905 8.30943 26.1666 8.53329 26.1666 8.80943C26.1666 9.08557 26.3905 9.30943 26.6666 9.30943H26.6826C26.9587 9.30943 27.1826 9.08557 27.1826 8.80943C27.1826 8.53329 26.9587 8.30943 26.6826 8.30943H26.6666Z" fill="white"/>
</svg>
