<svg width="37" height="37" viewBox="0 0 37 37" fill="none" xmlns="http://www.w3.org/2000/svg">
<path fill-rule="evenodd" clip-rule="evenodd" d="M1.38098 4.6248C1.38098 2.83422 2.7575 1.4248 4.40479 1.4248C6.05209 1.4248 7.4286 2.83422 7.4286 4.6248C7.4286 6.41538 6.05209 7.8248 4.40479 7.8248C2.7575 7.8248 1.38098 6.41538 1.38098 4.6248ZM4.40479 0.424805C2.15979 0.424805 0.380981 2.32848 0.380981 4.6248C0.380981 6.92113 2.15979 8.8248 4.40479 8.8248C6.64979 8.8248 8.4286 6.92113 8.4286 4.6248C8.4286 2.32848 6.64979 0.424805 4.40479 0.424805ZM25.5476 12.5248C22.8846 12.5248 20.3254 13.6354 18.4346 15.6207C16.5429 17.607 15.4762 20.3059 15.4762 23.1248V35.5748H21.5238V23.1248C21.5238 22.0186 21.9421 20.953 22.6939 20.1637C23.4464 19.3735 24.4724 18.9248 25.5476 18.9248C26.6229 18.9248 27.6489 19.3735 28.4014 20.1637C29.1532 20.953 29.5715 22.0186 29.5715 23.1248V35.5748H35.6191V23.1248C35.6191 20.3058 34.5523 17.607 32.6607 15.6207C30.7699 13.6354 28.2107 12.5248 25.5476 12.5248ZM25.5476 11.5248C22.6032 11.5248 19.7847 12.7532 17.7105 14.9311C15.637 17.1082 14.4762 20.056 14.4762 23.1248V36.0748C14.4762 36.3509 14.7001 36.5748 14.9762 36.5748H22.0238C22.3 36.5748 22.5238 36.3509 22.5238 36.0748V23.1248C22.5238 22.2685 22.8481 21.4518 23.418 20.8533C23.9872 20.2557 24.7538 19.9248 25.5476 19.9248C26.3415 19.9248 27.1081 20.2557 27.6773 20.8533C28.2472 21.4518 28.5715 22.2685 28.5715 23.1248V36.0748C28.5715 36.3509 28.7953 36.5748 29.0715 36.5748H36.1191C36.3952 36.5748 36.6191 36.3509 36.6191 36.0748V23.1248C36.6191 20.056 35.4583 17.1082 33.3848 14.9311C31.3106 12.7532 28.4921 11.5248 25.5476 11.5248ZM0.380981 13.8748C0.380981 13.5987 0.604839 13.3748 0.880981 13.3748H7.9286C8.20474 13.3748 8.4286 13.5987 8.4286 13.8748V36.0748C8.4286 36.3509 8.20474 36.5748 7.9286 36.5748H0.880981C0.604839 36.5748 0.380981 36.3509 0.380981 36.0748V13.8748ZM1.38098 14.3748V35.5748H7.4286V14.3748H1.38098Z" fill="white"/>
</svg>
