<svg width="50" height="41" viewBox="0 0 50 41" fill="none" xmlns="http://www.w3.org/2000/svg">
<path d="M45.8279 8.76471C45.5841 7.71587 45.0875 6.75487 44.3882 5.9788C43.689 5.20272 42.812 4.63904 41.8457 4.34471C38.3151 3.4165 24.1926 3.4165 24.1926 3.4165C24.1926 3.4165 10.0702 3.4165 6.5396 4.43311C5.5733 4.72744 4.69625 5.29112 3.99705 6.0672C3.29784 6.84327 2.80124 7.80427 2.55741 8.85311C1.91125 12.7108 1.59518 16.6242 1.61317 20.544C1.59014 24.4934 1.90623 28.4366 2.55741 32.3234C2.82622 33.3396 3.33395 34.2641 4.03152 35.0074C4.7291 35.7507 5.59295 36.2877 6.5396 36.5666C10.0702 37.5832 24.1926 37.5832 24.1926 37.5832C24.1926 37.5832 38.3151 37.5832 41.8457 36.5666C42.812 36.2722 43.689 35.7086 44.3882 34.9325C45.0875 34.1564 45.5841 33.1954 45.8279 32.1466C46.4691 28.3179 46.7851 24.4344 46.7721 20.544C46.7952 16.5947 46.4791 12.6514 45.8279 8.76471V8.76471Z" stroke="white" stroke-linecap="round" stroke-linejoin="round"/>
<path d="M19.3549 27.3332L32.2581 20.4998L19.3549 13.6665V27.3332Z" stroke="white" stroke-linecap="round" stroke-linejoin="round"/>
</svg>
