<svg width="47" height="37" viewBox="0 0 47 37" fill="none" xmlns="http://www.w3.org/2000/svg">
<path d="M44.8279 6.76471C44.5841 5.71587 44.0875 4.75487 43.3882 3.9788C42.689 3.20272 41.812 2.63904 40.8457 2.34471C37.3151 1.4165 23.1926 1.4165 23.1926 1.4165C23.1926 1.4165 9.07021 1.4165 5.5396 2.43311C4.5733 2.72744 3.69625 3.29112 2.99705 4.0672C2.29784 4.84327 1.80124 5.80427 1.55741 6.85311C0.911252 10.7108 0.595183 14.6242 0.613173 18.544C0.59014 22.4934 0.906229 26.4366 1.55741 30.3234C1.82622 31.3396 2.33395 32.2641 3.03152 33.0074C3.7291 33.7507 4.59295 34.2877 5.5396 34.5666C9.07021 35.5832 23.1926 35.5832 23.1926 35.5832C23.1926 35.5832 37.3151 35.5832 40.8457 34.5666C41.812 34.2722 42.689 33.7086 43.3882 32.9325C44.0875 32.1564 44.5841 31.1954 44.8279 30.1466C45.4691 26.3179 45.7851 22.4344 45.7721 18.544C45.7952 14.5947 45.4791 10.6514 44.8279 6.76471V6.76471Z" stroke="white" stroke-linecap="round" stroke-linejoin="round"/>
</svg>
